<svg width="40" height="40" viewBox="0 0 40 40" fill="none" xmlns="http://www.w3.org/2000/svg">
<g clip-path="url(#clip0_269_352)">
<path d="M20 40C16.0444 40 12.1776 38.827 8.8886 36.6294C5.59962 34.4318 3.03617 31.3082 1.52242 27.6537C0.00866569 23.9991 -0.387401 19.9778 0.384303 16.0982C1.15601 12.2186 3.06082 8.65492 5.85787 5.85787C8.65492 3.06082 12.2186 1.15601 16.0982 0.384303C19.9778 -0.387401 23.9991 0.00866569 27.6537 1.52242C31.3082 3.03617 34.4318 5.59962 36.6294 8.8886C38.827 12.1776 40 16.0444 40 20C40 25.3043 37.8929 30.3914 34.1421 34.1421C30.3914 37.8929 25.3043 40 20 40ZM20 3.07693C16.6529 3.07693 13.381 4.06945 10.598 5.92898C7.81506 7.78851 5.64599 10.4315 4.36512 13.5238C3.08426 16.6161 2.74912 20.0188 3.4021 23.3015C4.05508 26.5843 5.66685 29.5997 8.03358 31.9664C10.4003 34.3332 13.4157 35.9449 16.6985 36.5979C19.9812 37.2509 23.3839 36.9158 26.4762 35.6349C29.5685 34.354 32.2115 32.1849 34.071 29.402C35.9306 26.619 36.9231 23.3471 36.9231 20C36.9231 15.5117 35.1401 11.2073 31.9664 8.03358C28.7927 4.85989 24.4883 3.07693 20 3.07693Z" fill="black"/>
<path d="M20.2637 22.2418C18.7423 22.2418 17.2551 21.7906 15.9901 20.9454C14.7251 20.1002 13.7392 18.8988 13.157 17.4932C12.5747 16.0876 12.4224 14.541 12.7192 13.0488C13.016 11.5566 13.7487 10.186 14.8244 9.11021C15.9002 8.03442 17.2709 7.3018 18.763 7.00499C20.2552 6.70818 21.8019 6.86051 23.2074 7.44272C24.613 8.02494 25.8144 9.01088 26.6596 10.2759C27.5049 11.5409 27.956 13.0281 27.956 14.5495C27.956 16.5896 27.1456 18.5462 25.703 19.9888C24.2604 21.4314 22.3038 22.2418 20.2637 22.2418ZM20.2637 9.9341C19.3509 9.9341 18.4585 10.2048 17.6996 10.7119C16.9406 11.2191 16.349 11.9399 15.9997 12.7833C15.6503 13.6266 15.5589 14.5546 15.737 15.4499C15.9151 16.3452 16.3547 17.1676 17.0002 17.8131C17.6456 18.4585 18.468 18.8981 19.3633 19.0762C20.2586 19.2543 21.1866 19.1629 22.03 18.8135C22.8733 18.4642 23.5941 17.8727 24.1013 17.1137C24.6084 16.3547 24.8791 15.4623 24.8791 14.5495C24.8791 13.3254 24.3928 12.1515 23.5273 11.2859C22.6617 10.4204 21.4878 9.9341 20.2637 9.9341Z" fill="black"/>
<path d="M34.566 33.2308C34.3524 33.2323 34.1409 33.1892 33.9449 33.1045C33.7489 33.0197 33.5727 32.8951 33.4275 32.7385C31.7945 30.9573 29.8096 29.5344 27.5984 28.5599C25.3872 27.5854 22.9978 27.0804 20.5813 27.077H19.166C14.6617 27.0672 10.3304 28.8108 7.08904 31.9385C6.78955 32.1856 6.40771 32.3104 6.0201 32.2877C5.63248 32.2651 5.26777 32.0967 4.99912 31.8163C4.73047 31.536 4.57776 31.1645 4.5716 30.7762C4.56545 30.388 4.70632 30.0118 4.96596 29.7231C8.775 26.0415 13.8685 23.9886 19.166 24H20.5813C23.4217 24.0065 26.23 24.6002 28.8299 25.7439C31.4298 26.8877 33.7651 28.5567 35.689 30.6462C35.8923 30.8654 36.0273 31.139 36.0776 31.4337C36.1278 31.7284 36.0912 32.0313 35.972 32.3055C35.8529 32.5796 35.6565 32.8132 35.4068 32.9775C35.1571 33.1418 34.8649 33.2299 34.566 33.2308Z" fill="black"/>
</g>
<defs>
<clipPath id="clip0_269_352">
<rect width="40" height="40" fill="white"/>
</clipPath>
</defs>
</svg>
