<svg width="50" height="50" viewBox="0 0 50 50" fill="none" xmlns="http://www.w3.org/2000/svg">
<g clip-path="url(#clip0_46_179)">
<path fill-rule="evenodd" clip-rule="evenodd" d="M0 25.0001C0 11.193 11.1929 0.00012207 25 0.00012207C38.8071 0.00012207 50 11.193 50 25.0001C50 38.8072 38.8071 50.0001 25 50.0001C11.1929 50.0001 0 38.8072 0 25.0001ZM25.0012 11.6668C21.3801 11.6668 20.9256 11.6826 19.5034 11.7473C18.084 11.8123 17.1151 12.0371 16.2673 12.3668C15.3903 12.7073 14.6465 13.1629 13.9053 13.9043C13.1636 14.6454 12.708 15.3893 12.3664 16.266C12.0358 17.1141 11.8108 18.0832 11.747 19.5021C11.6833 20.9244 11.6667 21.3791 11.6667 25.0002C11.6667 28.6214 11.6828 29.0745 11.7472 30.4967C11.8125 31.9162 12.0372 32.885 12.3667 33.7328C12.7075 34.6098 13.163 35.3537 13.9045 36.0948C14.6453 36.8365 15.3892 37.2931 16.2656 37.6338C17.114 37.9635 18.0831 38.1881 19.5023 38.2531C20.9246 38.3179 21.3787 38.3338 24.9996 38.3338C28.621 38.3338 29.0741 38.3179 30.4964 38.2531C31.9157 38.1881 32.8857 37.9635 33.7342 37.6338C34.6108 37.2931 35.3535 36.8365 36.0944 36.0948C36.836 35.3537 37.2917 34.6098 37.6333 33.7331C37.9611 32.885 38.1861 31.9158 38.2528 30.497C38.3167 29.0747 38.3333 28.6214 38.3333 25.0002C38.3333 21.3791 38.3167 20.9247 38.2528 19.5024C38.1861 18.0829 37.9611 17.1141 37.6333 16.2663C37.2917 15.3893 36.836 14.6454 36.0944 13.9043C35.3527 13.1626 34.611 12.7071 33.7333 12.3668C32.8832 12.0371 31.9139 11.8123 30.4944 11.7473C29.0721 11.6826 28.6194 11.6668 24.9971 11.6668H25.0012Z" fill="black"/>
<path fill-rule="evenodd" clip-rule="evenodd" d="M23.8052 14.0696C24.1602 14.0691 24.5563 14.0696 25.0013 14.0696C28.5613 14.0696 28.9833 14.0824 30.3891 14.1463C31.6891 14.2058 32.3947 14.423 32.8647 14.6055C33.4869 14.8471 33.9306 15.136 34.3969 15.6026C34.8636 16.0693 35.1526 16.5138 35.3947 17.1361C35.5772 17.6055 35.7947 18.3111 35.8539 19.6111C35.9178 21.0166 35.9317 21.4389 35.9317 24.9972C35.9317 28.5556 35.9178 28.9778 35.8539 30.3834C35.7944 31.6834 35.5772 32.389 35.3947 32.8584C35.1531 33.4807 34.8636 33.9237 34.3969 34.3901C33.9303 34.8568 33.4872 35.1457 32.8647 35.3873C32.3953 35.5707 31.6891 35.7873 30.3891 35.8468C28.9836 35.9107 28.5613 35.9245 25.0013 35.9245C21.441 35.9245 21.019 35.9107 19.6135 35.8468C18.3135 35.7868 17.6079 35.5695 17.1377 35.387C16.5154 35.1453 16.0709 34.8565 15.6042 34.3898C15.1376 33.9232 14.8487 33.4798 14.6065 32.8573C14.424 32.3878 14.2065 31.6823 14.1473 30.3823C14.0834 28.9767 14.0707 28.5545 14.0707 24.9939C14.0707 21.4333 14.0834 21.0133 14.1473 19.6077C14.2067 18.3077 14.424 17.6021 14.6065 17.1321C14.8482 16.5099 15.1376 16.0655 15.6042 15.5988C16.0709 15.1321 16.5154 14.8433 17.1377 14.601C17.6077 14.4176 18.3135 14.201 19.6135 14.1413C20.8435 14.0858 21.3202 14.0691 23.8052 14.0663V14.0696ZM32.1186 16.2835C31.2353 16.2835 30.5186 16.9994 30.5186 17.883C30.5186 18.7663 31.2353 19.483 32.1186 19.483C33.0019 19.483 33.7186 18.7663 33.7186 17.883C33.7186 16.9996 33.0019 16.2835 32.1186 16.2835ZM25.0013 18.153C21.2198 18.153 18.154 21.2189 18.154 25.0002C18.154 28.7817 21.2198 31.8462 25.0013 31.8462C28.7828 31.8462 31.8475 28.7817 31.8475 25.0002C31.8475 21.2189 28.7828 18.153 25.0013 18.153Z" fill="black"/>
<path fill-rule="evenodd" clip-rule="evenodd" d="M25.0012 20.5558C27.4557 20.5558 29.4457 22.5456 29.4457 25.0003C29.4457 27.4547 27.4557 29.4447 25.0012 29.4447C22.5464 29.4447 20.5568 27.4547 20.5568 25.0003C20.5568 22.5456 22.5464 20.5558 25.0012 20.5558Z" fill="black"/>
</g>
<defs>
<clipPath id="clip0_46_179">
<rect width="50" height="50" fill="white"/>
</clipPath>
</defs>
</svg>
