<svg width="20" height="20" viewBox="0 0 20 20" fill="none" xmlns="http://www.w3.org/2000/svg">
<path d="M1.23944 4.74366C1.23944 2.80833 2.80834 1.23943 4.74367 1.23943H15.2563C17.1917 1.23943 18.7606 2.80833 18.7606 4.74366V15.2563C18.7606 17.1917 17.1917 18.7606 15.2563 18.7606H4.74367C2.80834 18.7606 1.23944 17.1917 1.23944 15.2563V4.74366Z" fill="black"/>
<path d="M0.053823 6.06052C-0.282244 4.15459 0.990381 2.3371 2.89631 2.00103L13.9395 0.053823C15.8454 -0.282244 17.6629 0.990381 17.999 2.89631L19.9462 13.9395C20.2822 15.8454 19.0096 17.6629 17.1037 17.999L6.06052 19.9462C4.15459 20.2822 2.3371 19.0096 2.00103 17.1037L0.053823 6.06052Z" fill="black" fill-opacity="0.5"/>
<path d="M14.8183 14.3803V5.61972C14.8183 5.13613 14.3876 4.74366 13.8547 4.74366C13.3218 4.74366 12.891 5.13613 12.891 5.61972V14.3803C12.891 15.831 11.5968 17.0085 10 17.0085C8.40322 17.0085 7.10902 15.831 7.10902 14.3803V5.61972C7.10902 5.13613 6.67826 4.74366 6.14536 4.74366C5.61245 4.74366 5.18169 5.13613 5.18169 5.61972V14.3803C5.18169 15.831 3.8875 17.0085 2.29071 17.0085V15.2563C2.82361 15.2563 3.25437 14.8647 3.25437 14.3803V5.61972C3.25437 4.16809 4.54857 2.99155 6.14536 2.99155C7.74215 2.99155 9.03634 4.16809 9.03634 5.61972V14.3803C9.03634 14.8647 9.4671 15.2563 10 15.2563C10.5329 15.2563 10.9637 14.8647 10.9637 14.3803V5.61972C10.9637 4.16809 12.2579 2.99155 13.8547 2.99155C15.4514 2.99155 16.7456 4.16809 16.7456 5.61972V14.3803C16.7456 14.8647 17.1764 15.2563 17.7093 15.2563V17.0085C16.1125 17.0085 14.8183 15.831 14.8183 14.3803Z" fill="white"/>
</svg>
