<svg width="149" height="28" viewBox="0 0 149 28" fill="none" xmlns="http://www.w3.org/2000/svg">
<path d="M11.12 15.2H10.96H11.12L13.24 6.44L14.96 -1.90735e-06H19.96L21.76 28H16.52L15.76 12.72H15.56L12.68 24H9.4L6.52 12.72H6.32L5.56 28H0.32L2.12 -1.90735e-06H7.12L8.84 6.44L10.96 15.2H11.12ZM34.0225 11.76H31.0225C30.6225 12.24 30.2892 12.9067 30.0225 13.76C29.7825 14.6133 29.6625 15.44 29.6625 16.24H35.3825C35.4358 15.44 35.3292 14.6133 35.0625 13.76C34.7958 12.88 34.4492 12.2133 34.0225 11.76ZM39.4625 23.8V28H29.3025C27.4358 26.7467 26.1158 25.2 25.3425 23.36C24.5958 21.4933 24.2225 19.6133 24.2225 17.72C24.2225 13.3467 25.8758 9.96 29.1825 7.56H35.6625C37.4492 8.86667 38.6625 10.2533 39.3025 11.72C39.9425 13.1867 40.2625 14.6667 40.2625 16.16C40.2625 17.6533 40.1425 18.9333 39.9025 20H29.9425C30.0225 20.6133 30.2492 21.32 30.6225 22.12C31.0225 22.8933 31.4492 23.4533 31.9025 23.8H39.4625ZM43.7559 19.08V11.76H40.9959V7.56H43.7559V2H49.0759V7.56H52.3559V11.76H49.0759V20.36C49.0759 21.9867 49.3559 23.1333 49.9159 23.8H52.3559V28H46.6759C45.2626 26.6933 44.4093 25.28 44.1159 23.76C43.8759 22.48 43.7559 20.92 43.7559 19.08ZM64.4616 18.76H60.1816C59.6216 19.4533 59.3416 20.32 59.3416 21.36C59.3416 22.4 59.6349 23.2133 60.2216 23.8H64.4616V18.76ZM55.8616 7.56H65.7816C67.3816 8.52 68.4349 9.62667 68.9416 10.88C69.4482 12.1067 69.7016 13.7867 69.7016 15.92V21.92C69.7016 24.1333 69.7549 26.16 69.8616 28H65.3016L64.5816 26.56C63.5416 27.52 62.0749 28 60.1816 28H57.6616C55.3949 26.5067 54.2616 24.36 54.2616 21.56C54.2616 18.7333 55.4216 16.5067 57.7416 14.88H61.5016C62.5416 14.88 63.5149 15.2 64.4216 15.84V13.84C64.4216 12.8 63.9682 12.1067 63.0616 11.76H55.8616V7.56ZM75.9019 -1.90735e-06H85.5019V4.8H77.8219L77.7019 5.04L84.1019 16.72C85.4085 19.0667 86.0619 20.8533 86.0619 22.08C86.0619 24.7733 85.1685 26.7467 83.3819 28H72.7819V23.36H81.0619L81.1819 23.12L73.9819 10.2C72.9419 8.33333 72.4219 6.81333 72.4219 5.64C72.4219 2.86667 73.5819 0.986665 75.9019 -1.90735e-06ZM100.614 28H91.8944C89.2277 25.52 87.8944 22.1333 87.8944 17.84C87.8944 15.68 88.1877 13.8 88.7744 12.2C89.3877 10.6 90.3477 9.05333 91.6544 7.56H101.014C102.401 9.16 103.348 10.72 103.854 12.24C104.361 13.7333 104.614 15.6 104.614 17.84C104.614 22.1333 103.281 25.52 100.614 28ZM94.7344 23.8H97.7744C98.7344 21.9333 99.2144 19.8133 99.2144 17.44C99.2144 15.0667 98.721 13.1733 97.7344 11.76H94.7344C93.7744 13.12 93.2944 15.0533 93.2944 17.56C93.2944 20.04 93.7744 22.12 94.7344 23.8ZM116.358 7.56H120.598C121.771 9.05333 122.571 10.5467 122.998 12.04C123.424 13.5333 123.638 15.4 123.638 17.64V28H118.318V17.24C118.318 14.7067 117.971 12.88 117.278 11.76H112.798V28H107.478V7.56H111.638L112.358 9C112.944 8.46667 113.491 8.09333 113.998 7.88C114.531 7.66667 115.318 7.56 116.358 7.56ZM126.931 28V7.56H132.211V28H126.931ZM126.931 -1.90735e-06H132.211V5.4H126.931V-1.90735e-06ZM140.602 17.6C140.602 18.72 140.775 19.8667 141.122 21.04C141.469 22.1867 141.949 23.1067 142.562 23.8H148.562V28H139.802C136.655 25.4933 135.082 22.0267 135.082 17.6C135.082 13.1733 136.762 9.82667 140.122 7.56H148.562V11.76H142.562C141.255 13.12 140.602 15.0667 140.602 17.6Z" fill="black"/>
</svg>
