<svg width="40" height="40" viewBox="0 0 40 40" fill="none" xmlns="http://www.w3.org/2000/svg">
<g clip-path="url(#clip0_269_359)">
<path d="M1.66663 1.66675H8.33329L12.8 23.9834C12.9524 24.7507 13.3698 25.44 13.9792 25.9306C14.5886 26.4211 15.3511 26.6817 16.1333 26.6667H32.3333C33.1155 26.6817 33.878 26.4211 34.4874 25.9306C35.0968 25.44 35.5142 24.7507 35.6666 23.9834L38.3333 10.0001H9.99996M16.6666 35.0001C16.6666 35.9206 15.9204 36.6667 15 36.6667C14.0795 36.6667 13.3333 35.9206 13.3333 35.0001C13.3333 34.0796 14.0795 33.3334 15 33.3334C15.9204 33.3334 16.6666 34.0796 16.6666 35.0001ZM35 35.0001C35 35.9206 34.2538 36.6667 33.3333 36.6667C32.4128 36.6667 31.6666 35.9206 31.6666 35.0001C31.6666 34.0796 32.4128 33.3334 33.3333 33.3334C34.2538 33.3334 35 34.0796 35 35.0001Z" stroke="#1E1E1E" stroke-width="3.5" stroke-linecap="round" stroke-linejoin="round"/>
</g>
<defs>
<clipPath id="clip0_269_359">
<rect width="40" height="40" fill="white"/>
</clipPath>
</defs>
</svg>
