<svg width="172" height="38" viewBox="0 0 172 38" fill="none" xmlns="http://www.w3.org/2000/svg">
<path d="M21.9998 5.66663L26.1198 14.0133L35.3332 15.36L28.6665 21.8533L30.2398 31.0266L21.9998 26.6933L13.7598 31.0266L15.3332 21.8533L8.6665 15.36L17.8798 14.0133L21.9998 5.66663Z" fill="#FFCC00"/>
<path d="M53.9998 5.66663L58.1198 14.0133L67.3332 15.36L60.6665 21.8533L62.2398 31.0266L53.9998 26.6933L45.7598 31.0266L47.3332 21.8533L40.6665 15.36L49.8798 14.0133L53.9998 5.66663Z" fill="#FFCC00"/>
<path d="M85.9998 5.66663L90.1198 14.0133L99.3332 15.36L92.6665 21.8533L94.2398 31.0266L85.9998 26.6933L77.7598 31.0266L79.3332 21.8533L72.6665 15.36L81.8798 14.0133L85.9998 5.66663Z" fill="#FFCC00"/>
<path d="M118 5.66663L122.12 14.0133L131.333 15.36L124.667 21.8533L126.24 31.0266L118 26.6933L109.76 31.0266L111.333 21.8533L104.667 15.36L113.88 14.0133L118 5.66663Z" fill="#FFCC00"/>
<path d="M150 5.66663L154.12 14.0133L163.333 15.36L156.667 21.8533L158.24 31.0266L150 26.6933L141.76 31.0266L143.333 21.8533L136.667 15.36L145.88 14.0133L150 5.66663Z" fill="#FFCC00"/>
</svg>
