<svg width="50" height="50" viewBox="0 0 50 50" fill="none" xmlns="http://www.w3.org/2000/svg">
<path fill-rule="evenodd" clip-rule="evenodd" d="M50 25.0001C50 38.8072 38.8071 50.0001 25 50.0001C11.1929 50.0001 0 38.8072 0 25.0001C0 11.193 11.1929 0.00012207 25 0.00012207C38.8071 0.00012207 50 11.193 50 25.0001ZM16.7411 22.71C14.2368 23.8035 11.6636 24.927 9.31068 26.223C8.08205 27.1226 9.71498 27.759 11.247 28.3559C11.4905 28.4507 11.7315 28.5446 11.958 28.6384C12.1466 28.6964 12.3382 28.7574 12.5325 28.8193C14.2364 29.3621 16.1361 29.9674 17.7903 29.0569C20.5076 27.496 23.0719 25.6914 25.6343 23.8881C26.4737 23.2973 27.313 22.7067 28.1574 22.1248C28.197 22.0995 28.2416 22.0705 28.2904 22.039C29.0097 21.5726 30.6275 20.524 30.0291 21.969C28.6141 23.5165 27.0983 24.8863 25.5745 26.2637C24.5474 27.1919 23.5166 28.1236 22.5103 29.1152C21.634 29.8273 20.7239 31.2593 21.7052 32.2565C23.9655 33.8388 26.2611 35.3827 28.5554 36.9258C29.302 37.4279 30.0485 37.93 30.7935 38.4333C32.0562 39.4415 34.0297 38.626 34.3073 37.0506C34.4307 36.326 34.5547 35.6014 34.6786 34.8767C35.3636 30.8718 36.0489 26.8654 36.6542 22.8475C36.7365 22.2172 36.8297 21.587 36.923 20.9565C37.1492 19.4282 37.3756 17.8981 37.4464 16.3617C37.2641 14.8284 35.4049 15.1655 34.3703 15.5103C29.0524 17.5339 23.7876 19.7074 18.5436 21.9193C17.9496 22.1824 17.3474 22.4453 16.7411 22.71Z" fill="black"/>
</svg>
